<svg width="90" height="90" viewBox="0 0 90 90" fill="none" xmlns="http://www.w3.org/2000/svg">
<g id="drop_606797 1" clip-path="url(#clip0_150_52)">
<g id="Group">
<g id="Group_2">
<path id="Vector" d="M53.3137 9.92258C51.2353 6.86619 49.4015 4.05431 47.6899 1.48694C47.4454 1.12018 47.0786 0.753409 46.7119 0.508898C45.2448 -0.469147 43.2887 0.0198753 42.3107 1.48694C40.7213 4.05431 38.8875 6.74393 36.6869 9.92258C27.0287 24.1042 12.6025 45.499 12.6025 57.7245C12.6025 66.6492 16.2702 74.7181 22.1385 80.5863C28.0067 86.3323 36.0756 90 45.0003 90C53.9249 90 61.9938 86.3323 67.8621 80.4641C73.7303 74.5958 77.398 66.5269 77.398 57.6023C77.398 45.3767 62.9719 24.1042 53.3137 9.92258ZM63.4609 76.0629C58.6929 80.8308 52.2134 83.6427 45.0003 83.6427C37.7872 83.6427 31.3076 80.7086 26.5397 76.0629C21.7717 71.2949 18.9598 64.8154 18.9598 57.6023C18.9598 47.3328 32.7747 26.9161 41.9439 13.3457C43.0442 11.7564 44.0222 10.1671 45.0003 8.82228C45.9783 10.1671 46.9564 11.7564 48.0567 13.3457C57.2258 27.0384 71.0407 47.3328 71.0407 57.6023C71.0407 64.8154 68.1066 71.2949 63.4609 76.0629Z" fill="white"/>
</g>
</g>
<g id="Group_3">
<g id="Group_4">
<path id="Vector_2" d="M63.9491 55.4016C62.2375 55.2794 60.7705 56.6242 60.6482 58.3358C60.526 61.0254 59.6702 63.5928 58.3254 65.7934C56.9805 67.994 55.0245 69.9501 52.7016 71.1726C51.2345 72.0284 50.6233 73.9845 51.479 75.4516C52.4571 77.1631 54.4132 77.6522 55.8802 76.7964C59.1811 74.9625 61.8708 72.2729 63.7046 69.2165C65.6607 66.1601 66.761 62.4925 66.8833 58.7025C67.0055 56.991 65.6607 55.5239 63.9491 55.4016Z" fill="white"/>
</g>
</g>
</g>
<defs>
<clipPath id="clip0_150_52">
<rect width="90" height="90" fill="white"/>
</clipPath>
</defs>
</svg>
