<svg width="25" height="25" viewBox="0 0 25 25" fill="none" xmlns="http://www.w3.org/2000/svg">
<g id="phone" clip-path="url(#clip0_152_174)">
<path id="Vector" d="M24.0913 1.20121L19.0132 0.0293366C18.4614 -0.0976165 17.895 0.190469 17.6704 0.708048L15.3267 6.1768C15.1216 6.65531 15.2583 7.21684 15.6636 7.54399L18.6226 9.96586C16.8648 13.711 13.7935 16.8262 9.97023 18.6182L7.54836 15.6592C7.21633 15.2539 6.65969 15.1172 6.18117 15.3223L0.712423 17.6661C0.189962 17.8955 -0.0981242 18.462 0.0288289 19.0137L1.2007 24.0918C1.32277 24.6192 1.79152 25 2.34328 25C14.8482 25 24.9995 14.8682 24.9995 2.34379C24.9995 1.79691 24.6236 1.32328 24.0913 1.20121Z" fill="white"/>
</g>
<defs>
<clipPath id="clip0_152_174">
<rect width="25" height="25" fill="white"/>
</clipPath>
</defs>
</svg>
