<svg width="100" height="100" viewBox="0 0 100 100" fill="none" xmlns="http://www.w3.org/2000/svg">
<g id="quality_1212158 1" clip-path="url(#clip0_150_80)">
<path id="Vector" d="M61.3105 40.711L46.2855 54.9024L39.0746 47.4839C38.2751 46.6609 36.9588 46.6422 36.1366 47.4416C35.3136 48.2418 35.2949 49.5573 36.0943 50.3803L44.7428 59.2584C45.5463 60.0668 46.8447 60.0945 47.6816 59.3203L64.2077 43.7327C64.6091 43.3542 64.8435 42.8316 64.859 42.2805C64.8744 41.7293 64.6701 41.1945 64.2908 40.794C63.4865 39.958 62.1604 39.9213 61.3105 40.711Z" fill="white"/>
<path id="Vector_2" d="M50.1608 18.8707C32.9891 18.8707 19.0264 32.8334 19.0264 50.0051C19.0264 67.1776 32.9891 81.1403 50.1608 81.1403C67.3333 81.1403 81.296 67.1776 81.296 50.0051C81.296 32.8334 67.3333 18.8707 50.1608 18.8707ZM50.1608 76.9723C35.2814 76.9723 23.1943 64.864 23.1943 50.0051C23.1943 35.1461 35.2814 23.0386 50.1608 23.0386C65.0547 23.0386 77.128 35.1119 77.128 50.0051C77.128 64.8982 65.0547 76.9723 50.1608 76.9723Z" fill="white"/>
<path id="Vector_3" d="M93.0079 38.5432L93.6958 26.185C93.7438 25.3554 93.2928 24.5764 92.5496 24.2052L81.546 18.6411L75.9819 7.6375C75.6034 6.90078 74.8292 6.45223 74.0021 6.49131L61.6228 7.15883L51.307 0.343552C50.6118 -0.114762 49.7107 -0.114762 49.0147 0.343552L38.6989 7.15883L26.3416 6.47096C25.5112 6.42211 24.733 6.8731 24.3618 7.61715L18.7969 18.6208L7.79409 24.1848C7.05655 24.5625 6.60882 25.3367 6.6479 26.1646L7.33496 38.5228L0.520493 48.8385C0.0621794 49.5337 0.0621794 50.4349 0.520493 51.1309L7.31461 61.467L6.62673 73.8252C6.5787 74.6547 7.02887 75.4338 7.77292 75.805L18.7765 81.369L24.3406 92.3726C24.7183 93.1102 25.4925 93.5579 26.3204 93.5188L38.6786 92.831L48.9943 99.6454C49.6854 100.118 50.5956 100.118 51.2867 99.6454L61.6024 92.831L73.9606 93.5188C74.7901 93.5669 75.5684 93.1159 75.9404 92.3726L81.5045 81.369L92.5081 75.805C93.2448 75.4264 93.6933 74.6531 93.6543 73.8252L92.9664 61.467L99.7808 51.1513C100.239 50.4561 100.239 49.5541 99.7808 48.8589L93.0079 38.5432ZM89.1314 59.7583C88.8774 60.1311 88.7593 60.5797 88.7984 61.0298L89.444 72.7205L79.0452 77.972C78.6488 78.1706 78.3272 78.493 78.1286 78.8894L72.8763 89.2882L61.1856 88.6426C60.7379 88.6264 60.2958 88.742 59.9141 88.9756L50.1608 95.4156L40.4084 88.9756C40.0698 88.7468 39.6709 88.6231 39.2623 88.6215H39.1581L27.4666 89.2678L22.2151 78.8683C22.0165 78.4718 21.6949 78.1503 21.2977 77.9516L10.8777 72.7205L11.5241 61.0298C11.5404 60.5821 11.424 60.1401 11.1903 59.7583L4.75114 50.0051L11.1903 40.2519C11.4451 39.8798 11.5632 39.4305 11.5241 38.9811L10.8777 27.2896L21.2773 22.0382C21.6738 21.8395 21.9953 21.518 22.1939 21.1215L27.4454 10.722L39.1369 11.3683C39.5838 11.3838 40.0258 11.2682 40.4084 11.0346L50.1608 4.59537L59.9141 11.0346C60.2869 11.2894 60.7363 11.4074 61.1856 11.3683L72.8763 10.722L78.1286 21.1215C78.3272 21.518 78.6488 21.8395 79.0452 22.0382L89.444 27.2896L88.7984 38.9811C88.7821 39.428 88.8985 39.8701 89.1314 40.2519L95.5714 50.0051L89.1314 59.7583Z" fill="white"/>
</g>
<defs>
<clipPath id="clip0_150_80">
<rect width="100" height="100" fill="white"/>
</clipPath>
</defs>
</svg>
