<svg width="90" height="90" viewBox="0 0 90 90" fill="none" xmlns="http://www.w3.org/2000/svg">
<g id="water-waves_2352792 1" clip-path="url(#clip0_150_74)">
<g id="Group">
<path id="Vector" d="M80.5059 41.2418C78.3301 41.2418 76.451 40.5495 74.7697 39.1648C73.8796 38.4725 73.0884 37.6813 72.2971 36.8901C71.7037 36.2967 71.1103 35.8022 70.418 35.4066C69.1323 34.6154 67.9455 34.7143 66.7587 35.4066C66.1653 35.8022 65.5719 36.1978 65.0774 36.6923C64.2862 37.4835 63.396 38.2747 62.5059 38.967C59.6378 41.3407 56.5719 41.8352 53.1103 40.4506C52.3191 40.1539 51.6268 39.6593 51.0334 39.1648C50.1433 38.3736 49.2532 37.5824 48.3631 36.7912C47.8686 36.2967 47.2752 35.8022 46.6818 35.4066C45.4949 34.6154 44.407 34.5165 43.1213 35.2088C42.1323 35.8022 41.1433 36.5934 40.3521 37.3846C39.2642 38.4725 38.1763 39.4615 36.7917 40.1538C33.9235 41.6374 31.1543 41.5385 28.2862 40.0549C27.0993 39.3626 26.1103 38.4725 25.1213 37.4835C24.3301 36.6923 23.5389 36 22.6488 35.4066C21.5609 34.7143 20.473 34.6154 19.2862 35.2088C18.2971 35.7033 17.5059 36.4945 16.7147 37.1868C16.0224 37.7802 15.429 38.3736 14.7367 38.967C12.3631 40.9451 9.69275 41.7363 6.62682 40.9451C5.44001 40.6484 4.35209 40.0549 3.36308 39.3626C2.47297 38.6703 1.58286 37.8791 0.791654 37.0879C0.000444755 36.1978 -0.0984564 35.011 0.692752 34.1209C1.48396 33.2308 2.76968 33.2308 3.65979 34.022C4.35209 34.6154 4.9455 35.2088 5.53891 35.8022C6.13231 36.3956 6.82462 36.6923 7.51693 36.8901C9.09935 37.2857 10.5829 36.989 11.8686 35.8022C12.7587 35.1099 13.5499 34.3187 14.3411 33.6264C15.5279 32.5385 16.8136 31.6484 18.2971 31.0549C20.1763 30.3626 21.9565 30.4615 23.7367 31.2528C25.1213 31.8462 26.2092 32.8352 27.1982 33.8242C27.9895 34.5165 28.7807 35.3077 29.5719 36C31.1543 37.2857 32.8356 37.3846 34.6158 36.5934C36.0004 35.9011 36.8906 34.7143 37.9785 33.8242C39.3631 32.7363 40.6488 31.6484 42.3301 31.0549C44.3081 30.4615 46.0884 30.5604 47.8686 31.5495C49.0554 32.1429 50.1433 32.9341 51.0334 33.9231C51.7257 34.7143 52.6158 35.4066 53.407 36.0989C54.9895 37.3846 57.0664 37.4835 58.7477 36.3956C59.8356 35.7033 60.8246 34.7143 61.7147 33.8242C62.8026 32.8352 63.9895 31.9451 65.2752 31.3517C67.7477 30.2637 70.0224 30.4615 72.2971 31.8462C73.6818 32.7363 74.8686 33.8242 76.0554 35.011C76.8466 35.8022 77.7367 36.5934 78.8246 36.8901C80.5059 37.2857 81.9895 36.989 83.2752 35.8022C84.0664 35.011 84.9565 34.4176 85.7477 33.6264C86.7367 32.6374 88.1213 32.9341 88.8136 33.7253C89.6048 34.6154 89.5059 35.9011 88.6158 36.7912C87.6268 37.6813 86.6378 38.5714 85.6488 39.3626C84.3631 40.5495 82.5829 41.2418 80.5059 41.2418Z" fill="white"/>
<path id="Vector_2" d="M80.2097 77.5384C78.3306 77.5384 76.4514 76.8461 74.7701 75.4615C73.88 74.7692 73.0888 73.978 72.2976 73.1868C71.7042 72.5934 71.1108 72.0989 70.4185 71.7033C69.1327 70.9121 67.9459 71.011 66.7591 71.7033C65.869 72.1978 65.1767 72.8901 64.4844 73.5824C63.6932 74.3736 62.902 75.0659 62.0119 75.7582C59.3415 77.7362 56.3745 78.1318 53.2097 76.8461C52.1218 76.4505 51.3306 75.7582 50.4404 75.0659C49.3525 74.0769 48.3635 72.989 47.1767 72.0989C45.5943 70.8132 44.3086 70.8132 42.6273 72C41.2426 72.8901 40.2536 74.0769 39.0668 75.1648C37.0888 76.7472 34.913 77.8351 32.3415 77.6373C31.3525 77.5384 30.3635 77.3406 29.3745 76.945C27.891 76.2527 26.6053 75.2637 25.5174 74.0769C24.8251 73.2857 23.9349 72.6923 23.1437 72C21.858 71.011 20.4734 70.9121 19.0888 71.8022C18.1987 72.3956 17.3086 73.0879 16.5174 73.8791C15.0339 75.2637 13.5503 76.5494 11.5723 77.2417C9.98989 77.7362 8.40748 77.7362 6.82506 77.4395C5.53935 77.1428 4.35253 76.4505 3.26462 75.6593C2.47341 74.8681 1.6822 74.1758 0.989896 73.3846C0.198687 72.5934 0.0997858 71.3077 0.890995 70.4175C1.5833 69.6263 2.86902 69.4285 3.75913 70.2197C4.45143 70.8132 5.04484 71.5055 5.73715 72.0989C7.61627 73.7802 9.9899 73.7802 11.9679 72.2967C12.9569 71.5055 13.9459 70.6154 14.836 69.7252C16.5174 68.2417 18.2976 67.1538 20.5723 66.956C21.5613 66.8571 22.5503 67.0549 23.4404 67.3516C25.0229 67.945 26.3086 68.934 27.4954 70.1208C28.2866 70.8132 28.9789 71.6044 29.869 72.1978C31.4514 73.4835 33.1328 73.6813 35.0119 72.7912C36.2976 72.0989 37.1877 71.011 38.2756 70.1208C39.858 68.8351 41.4404 67.4505 43.5174 67.0549C45.2976 66.6593 46.9789 67.0549 48.4624 67.945C49.6492 68.6373 50.7371 69.5274 51.6273 70.5165C52.3196 71.2088 53.0119 71.8022 53.8031 72.3956C55.3855 73.6813 57.3635 73.6813 59.0448 72.6923C60.2317 71.9011 61.2207 70.9121 62.2097 69.923C63.3965 68.8351 64.6822 67.945 66.1657 67.3516C68.1437 66.5604 70.1218 66.7582 72.0009 67.8461C73.1877 68.5384 74.2756 69.3296 75.1657 70.2197C75.7591 70.8132 76.3525 71.4066 76.9459 71.9011C79.2207 73.8791 81.5943 73.8791 83.869 71.9011C84.6602 71.2088 85.4514 70.5164 86.2426 69.8241C87.0338 69.1318 88.2207 69.1318 89.0119 69.8241C89.8031 70.5164 89.902 71.6044 89.4075 72.4945C89.2097 72.7912 89.0119 72.989 88.8141 73.1868C88.0229 73.8791 87.3306 74.5714 86.5393 75.2637C84.7591 76.6483 82.7811 77.5384 80.2097 77.5384Z" fill="white"/>
<path id="Vector_3" d="M80.4075 59.3407C78.2316 59.3407 76.3525 58.6484 74.6712 57.1648C73.7811 56.4725 72.9899 55.6813 72.1987 54.8901C71.6053 54.2967 70.9129 53.8022 70.2206 53.3077C69.0338 52.6154 67.9459 52.8132 66.7591 53.4066C66.0668 53.8022 65.4734 54.2967 64.9789 54.7912C64.0888 55.6813 63.1987 56.4725 62.2097 57.2637C59.4404 59.4396 56.4734 59.8352 53.2097 58.6484C52.2206 58.2528 51.4294 57.6593 50.7371 57.0659C49.4514 55.978 48.3635 54.6923 46.9789 53.7033C45.5943 52.7143 44.3086 52.6154 42.9239 53.5055C42.0338 54.0989 41.1437 54.7912 40.4514 55.5824C39.2646 56.7692 37.88 57.8572 36.2976 58.5495C33.6272 59.7363 30.9569 59.5385 28.3855 58.1539C27.1987 57.5604 26.3086 56.6703 25.4184 55.6813C24.6272 54.8901 23.836 54.1978 22.9459 53.5055C21.858 52.7143 20.6712 52.6154 19.3855 53.3077C18.3965 53.8022 17.6053 54.5934 16.814 55.2857C16.1217 55.8791 15.4294 56.6703 14.6382 57.2637C11.869 59.4396 8.80306 59.9341 5.53932 58.6484C3.6602 57.8572 2.17669 56.4725 0.79207 54.8901C0.0997624 54.0989 0.198663 52.8132 0.989872 52.1209C1.78108 51.3297 2.96789 51.3297 3.858 52.022C4.45141 52.6154 5.04482 53.2088 5.73713 53.8022C7.71515 55.5824 10.3855 55.5824 12.4624 53.7033C13.4514 52.8132 14.4404 51.9231 15.4294 51.1319C16.814 49.9451 18.3965 49.055 20.1767 48.7582C21.4624 48.5604 22.7481 48.7582 24.0338 49.2528C25.4184 49.8462 26.5064 50.7363 27.4954 51.7253C28.2866 52.4176 28.9789 53.1099 29.7701 53.8022C31.5503 55.4835 34.1217 55.4835 36.0998 53.9011C36.6932 53.4066 37.2866 52.8132 37.88 52.3187C38.6712 51.5275 39.5613 50.8352 40.5503 50.1429C43.4184 48.2637 46.3855 47.967 49.3525 50.044C50.2426 50.6374 51.0338 51.2308 51.7261 52.022C52.4184 52.8132 53.3086 53.5055 54.0998 54.0989C55.5833 55.2857 57.6602 55.3846 59.3415 54.2967C60.4294 53.6044 61.3195 52.7143 62.3086 51.8242C63.3965 50.7363 64.5833 49.9451 65.9679 49.3517C68.3415 48.2637 70.7151 48.4615 72.9899 49.9451C74.1767 50.7363 75.2646 51.6264 76.2536 52.6154C76.847 53.3077 77.5393 53.9011 78.3305 54.3956C80.0118 55.4835 82.3855 55.3846 84.1657 53.7033C84.9569 53.011 85.7481 52.3187 86.5393 51.5275C87.4294 50.7363 88.814 50.8352 89.5064 51.6264C90.2976 52.5165 90.1987 53.8022 89.3086 54.6923C88.4184 55.5824 87.4294 56.3736 86.4404 57.1648C84.4624 58.6484 82.5833 59.4396 80.4075 59.3407Z" fill="white"/>
<path id="Vector_4" d="M9.00054 23.044C6.92362 23.044 5.0445 22.4505 3.36318 21.1648C2.57197 20.4725 1.78076 19.7802 0.989554 18.989C0.0994437 18.0989 0.0994437 16.8132 0.791751 16.022C1.58296 15.1319 2.86867 15.1319 3.85769 15.9231C4.45109 16.5165 5.0445 17.1099 5.6379 17.6044C7.61593 19.2857 9.89065 19.2857 11.8687 17.7033C12.7588 17.011 13.6489 16.2198 14.539 15.4286C16.1214 14.044 17.8027 12.8571 19.8797 12.5604C21.2643 12.2637 22.6489 12.5604 23.9346 13.1538C25.2203 13.7473 26.2093 14.6374 27.2972 15.5275C27.9896 16.2198 28.7808 16.8132 29.4731 17.5055C31.4511 19.3846 34.1214 19.2857 36.0994 17.5055C36.6929 17.011 37.2863 16.4176 37.8797 15.8242C38.9676 14.9341 40.0555 13.9451 41.3412 13.3516C43.9126 12.0659 46.4841 12.0659 49.0555 13.7473C50.3412 14.6374 51.4291 15.7253 52.6159 16.8132C53.4071 17.5055 54.1983 18.2967 55.2863 18.6923C56.8687 19.1868 58.2533 18.8901 59.6379 17.9011C60.6269 17.2088 61.4181 16.4176 62.3082 15.5275C63.495 14.3407 64.8797 13.4505 66.4621 12.8571C68.4401 12.1648 70.4181 12.2637 72.2972 13.3516C73.4841 13.9451 74.4731 14.7363 75.4621 15.7253C76.0555 16.3187 76.6489 16.9121 77.2423 17.4066C79.3192 19.2857 81.7917 19.3846 83.9676 17.6044C84.7588 16.9121 85.55 16.2198 86.2423 15.5275C87.2313 14.6374 88.6159 14.5385 89.4071 15.5275C90.1983 16.5165 90.0994 17.8022 89.0115 18.6923C88.2203 19.3846 87.4291 20.0769 86.6379 20.7692C83.1764 23.8352 78.0335 23.7363 74.8687 20.8681C73.9786 20.0769 73.1873 19.3846 72.3961 18.5934C71.8027 18 71.1104 17.5055 70.4181 17.1099C69.2313 16.4176 68.1434 16.6154 67.0555 17.3077C66.4621 17.7033 65.8687 18.0989 65.3742 18.5934C64.4841 19.4835 63.495 20.2747 62.506 21.0659C59.7368 23.2418 56.6709 23.7363 53.4071 22.4506C52.4181 22.0549 51.528 21.4615 50.8357 20.7692C49.8467 19.8791 48.9566 18.989 47.9676 18.0989C47.3742 17.6044 46.6819 17.1099 45.8907 16.8132C45.0005 16.5165 44.2093 16.7143 43.4181 17.1099C42.4291 17.6044 41.6379 18.2967 40.8467 19.0879C39.7588 20.2747 38.4731 21.2637 37.0885 22.0549C34.2203 23.5385 31.4511 23.4396 28.583 21.956C27.3961 21.3626 26.506 20.4725 25.517 19.4835C24.7258 18.6923 23.8357 18 22.9456 17.3077C21.7588 16.4176 20.572 16.4176 19.2863 17.1099C18.2972 17.7033 17.506 18.4945 16.7148 19.1868C16.1214 19.6813 15.528 20.3736 14.8357 20.8681C13.0555 22.2527 11.1764 23.1429 9.00054 23.044Z" fill="white"/>
</g>
</g>
<defs>
<clipPath id="clip0_150_74">
<rect width="90" height="90" fill="white"/>
</clipPath>
</defs>
</svg>
